<svg xmlns="http://www.w3.org/2000/svg" viewBox="0 0 634 260"><defs><style>.cls-1{fill:#f2b90c;}.cls-2{fill:#fff;}.cls-3{fill:#f9f9f9;}</style></defs><title>AppOS</title><g id="Logo_Escura_2" data-name="Logo Escura 2"><rect class="cls-1" width="634" height="260"/><path class="cls-2" d="M524.79,83.81a25.31,25.31,0,0,1,33.82-26.37,26.46,26.46,0,0,1,13.47,11l-3.46,2a22.91,22.91,0,0,0-11.11-10.19,23.15,23.15,0,0,0-15.35-1,24.3,24.3,0,0,0-12.82,9.13A25.24,25.24,0,0,0,524.79,83.81Z"/><path class="cls-2" d="M570.62,67.44,572,64.11s3.14-2.34,3,1.47l-2.07,7.15A3.63,3.63,0,0,1,570.74,74c-1,0-7.65-2.92-7.65-2.92s-1.52-3,.92-3.57l3.2,1.22S569.92,69.48,570.62,67.44Z"/><path class="cls-3" d="M574.41,81.92a25.5,25.5,0,0,1-34.83,25.56A26.89,26.89,0,0,1,526.19,96l4.4-2.36A22.59,22.59,0,0,0,541.07,104a22.86,22.86,0,0,0,15.09,1.59,24.14,24.14,0,0,0,13.09-8.52A25.24,25.24,0,0,0,574.41,81.92Z"/><path class="cls-2" d="M528.06,96.75,526.54,100s-3.22,2.24-2.91-1.57l2.31-7.07a3.62,3.62,0,0,1,2.23-1.23c1,0,7.53,3.16,7.53,3.16s1.43,3.07-1,3.54l-3.16-1.32S528.83,94.73,528.06,96.75Z"/><path class="cls-3" d="M118,113l11-3v17h16v8H130l-1,35s-1,14,16,8l-.5,9.5s-21,5-25-9l-1-43h-9v-8h9Z"/><path class="cls-3" d="M201.5,187.5s-2-7-2-41c-6-37-43-15-43-15l3,7s10.43-6.26,19.24-4.46a12.46,12.46,0,0,1,9.47,9.64l.63,2.85a2.13,2.13,0,0,1-2.27,2.59c-6.19-.56-20.81-.65-30.07,9.38A16,16,0,0,0,152,172.16c1.31,9.21,9.43,15.89,18.73,16.08,6.67.14,14.6-1.47,18.75-8.74v8Zm-35-10c-15-21,22-21,22-21C190.5,184.5,172.5,180.5,166.5,177.5Z"/><path class="cls-3" d="M219,113l11-3v17h16v8H231l-1,35s-1,14,16,8l-.5,9.5s-21,5-25-9l-1-43h-9v-8h9Z"/><path class="cls-3" d="M256.5,127.5h11l1,41s3,11,15,11,13-13,13-13v-39h13v60h-10l-1-10s-9,12-20,11-16-7-16-7-6-6-6-32Z"/></g><g id="Logo_Escura" data-name="Logo Escura"><path class="cls-3" d="M101.25,108.24,99,115s-30.68-11.73-30.59,10a11.1,11.1,0,0,0,5.64,8.93A232.11,232.11,0,0,1,97,147s18.5,12.62,3.06,32.45A24.55,24.55,0,0,1,87.6,188a40.25,40.25,0,0,1-33.1-4.49l3-9s33.5,15.5,37-9c0,0,1.45-7.27-10.43-13.7a10.23,10.23,0,0,0-1.17-.53,87.11,87.11,0,0,1-19.83-10.75,14.84,14.84,0,0,1-4.69-5.7c-2.57-5.5-4.28-18.09,5.73-26.14.58-.47,1.15-1,1.7-1.46,12.31-11.34,28.49-4.79,34-2.33C101.05,105.46,103,106,101.25,108.24Z"/><path class="cls-3" d="M504.25,106.24,502,113s-30.68-11.73-30.59,10a11.1,11.1,0,0,0,5.64,8.93A232.11,232.11,0,0,1,500,145s18.5,12.62,3.06,32.45A24.55,24.55,0,0,1,490.6,186a40.25,40.25,0,0,1-33.1-4.49l3-9s33.5,15.5,37-9c0,0,1.45-7.27-10.43-13.7a10.23,10.23,0,0,0-1.17-.53,87.11,87.11,0,0,1-19.83-10.75,14.84,14.84,0,0,1-4.69-5.7c-2.57-5.5-4.28-18.09,5.73-26.14.58-.47,1.15-1,1.7-1.46,12.31-11.34,28.49-4.79,34-2.33C504.05,103.46,506,104,504.25,106.24Z"/><path class="cls-3" d="M356.3,129.21l-1.65,4.71s-22.51-8.18-22.45,7a7.71,7.71,0,0,0,4.14,6.23,173.4,173.4,0,0,1,16.84,9.13s13.57,8.8,2.24,22.63a18,18,0,0,1-9.14,5.95A30.89,30.89,0,0,1,322,181.68l2.2-6.27s24.58,10.8,27.14-6.28c0,0,1.07-5.07-7.65-9.55a8.25,8.25,0,0,0-.86-.37,64.75,64.75,0,0,1-14.55-7.5,10.48,10.48,0,0,1-3.43-4c-1.89-3.83-3.15-12.62,4.2-18.23.43-.32.84-.66,1.25-1,9-7.91,20.9-3.34,24.91-1.63C356.15,127.27,357.58,127.65,356.3,129.21Z"/><path class="cls-3" d="M410,99c-21,0-38,19.48-38,43.5S389,186,410,186s38-19.48,38-43.5S431,99,410,99Zm-.75,77.5c-14.5,0-26.25-15.67-26.25-35s11.75-35,26.25-35,26.25,15.67,26.25,35S423.75,176.5,409.25,176.5Z"/></g></svg>