<svg xmlns="http://www.w3.org/2000/svg" viewBox="0 0 640 260.4"><defs><style>.cls-1{fill:#f98500;}.cls-2{fill:#b3b3b3;}.cls-3{fill:#f2b90c;}.cls-4{fill:#8c783a;}.cls-5{fill:#707070;opacity:0.28;}.cls-6{fill:#403f3e;}.cls-7{fill:#262626;}.cls-8{fill:#f9f9f9;}.cls-9{fill:#fff;}</style></defs><title>AppOS</title><g id="Logo_Escura" data-name="Logo Escura"><rect class="cls-1" width="640" height="267"/><polygon class="cls-2" points="500 42.5 504.04 38.19 511.05 42.5 512.4 46.28 528.43 62.31 523.85 66.35 508.08 50.59 504.31 49.51 500 42.5"/><path class="cls-3" d="M529,77.67l10.51-10.51,3,3.23a1.91,1.91,0,0,0-1.08,1.35c-.21,1.52.81,3.5,2.7,3,.44-.16,1-.73,1.62-1.08l13.2,13.47L548.64,97.34,535.17,83.87l1.07-1.08s.81-4-3-3l-1.08.8Z"/><path class="cls-2" d="M558.88,87.1s3.5,5.66-1.89,10-8.35.27-8.35.27Z"/><path class="cls-4" d="M540.83,79.29a11.89,11.89,0,0,1,4.29,1.59,16.07,16.07,0,0,1,3.29,2.59,15.46,15.46,0,0,1,2.51,3.34,11.85,11.85,0,0,1,1.49,4.33,11.87,11.87,0,0,1-4.3-1.59A15.75,15.75,0,0,1,544.83,87a16.69,16.69,0,0,1-2.51-3.34A11.92,11.92,0,0,1,540.83,79.29Z"/><path class="cls-5" d="M553.67,92.31h0a4.58,4.58,0,0,1,2.07,4.74l-.19,1s6.7-2.75,3.47-11.1Z"/><path class="cls-6" d="M559.42,47.35,553,54.09l-6.73-2.42-1.89-5.93,6.6-6.87c-15.09-2.16-13.47,14-13.47,14L514,76.05c-5.77-.47-9.24,1.45-11.31,4a11.81,11.81,0,0,0,2.62,17.3l.36.23a8.36,8.36,0,0,0,3.93,1.19c15.62.83,12.62-13.64,12.62-13.64L546,61.37C563.19,62.44,559.42,47.35,559.42,47.35ZM514.55,92.76h-5.93l-3.77-5.12,3.23-5.39h6.47l3,5.39Z"/><path class="cls-7" d="M519,79.83a32.66,32.66,0,0,1,4.2-7.53,53.69,53.69,0,0,1,11.71-11.73,33,33,0,0,1,7.53-4.19,32.63,32.63,0,0,1-4.19,7.53,51.87,51.87,0,0,1-5.41,6.31,52.86,52.86,0,0,1-6.32,5.41A33.56,33.56,0,0,1,519,79.83Z"/><path class="cls-8" d="M245.5,148.5c-1.38-9.69-8.61-20.61-22-23-7.15-1.28-20-1-26,13v-13h-9v86l11-1v-33s18,24,40,0C244.47,172.08,247.5,162.5,245.5,148.5Zm-28.5,31c-9.66,0-17.5-10.3-17.5-23s7.84-23,17.5-23,17.5,10.3,17.5,23S226.66,179.5,217,179.5Z"/><path class="cls-8" d="M364,102c-21,0-38,19.48-38,43.5S343,189,364,189s38-19.48,38-43.5S385,102,364,102Zm-.75,77.5c-14.5,0-26.25-15.67-26.25-35s11.75-35,26.25-35,26.25,15.67,26.25,35S377.75,179.5,363.25,179.5Z"/><path class="cls-8" d="M458.25,107.24,456,114s-30.68-11.73-30.59,10a11.1,11.1,0,0,0,5.64,8.93A232.11,232.11,0,0,1,454,146s18.5,12.62,3.06,32.45A24.55,24.55,0,0,1,444.6,187a40.25,40.25,0,0,1-33.1-4.49l3-9s33.5,15.5,37-9c0,0,1.45-7.27-10.43-13.7a10.23,10.23,0,0,0-1.17-.53,87.11,87.11,0,0,1-19.83-10.75,14.84,14.84,0,0,1-4.69-5.7c-2.57-5.5-4.28-18.09,5.73-26.14.58-.47,1.15-1,1.7-1.46,12.31-11.34,28.49-4.79,34-2.33C458.05,104.46,460,105,458.25,107.24Z"/><path class="cls-9" d="M317,149c-1.38-9.69-8.61-20.61-22-23-7.15-1.28-20-1-26,13V126h-9v86l11-1V178s18,24,40,0C316,172.58,319,163,317,149Zm-28.5,31c-9.66,0-17.5-10.3-17.5-23s7.84-23,17.5-23S306,144.3,306,157,298.16,180,288.5,180Z"/></g><g id="Logo_Branca-2" data-name="Logo Branca"><path class="cls-9" d="M149.5,102.5h-14l-28,85h11l10-27h30l8,26h11Zm-20,48,13-36,13,36Z"/></g></svg>