<svg xmlns="http://www.w3.org/2000/svg" viewBox="0 0 640 258.22"><defs><style>.cls-1{fill:#b3b3b3;}.cls-2{fill:#f2b90c;}.cls-3{fill:#8c783a;}.cls-4{fill:#707070;opacity:0.28;}.cls-5{fill:#403f3e;}.cls-6{fill:#262626;}.cls-7{fill:#fff;}</style></defs><title>AppOS</title><g id="Logo_Branca" data-name="Logo Branca"><polygon class="cls-1" points="491 48.5 495.04 44.19 502.05 48.5 503.4 52.28 519.43 68.31 514.85 72.35 499.08 56.59 495.31 55.51 491 48.5"/><path class="cls-2" d="M520,83.67l10.51-10.51,3,3.23a1.91,1.91,0,0,0-1.08,1.35c-.21,1.52.81,3.5,2.7,3,.44-.16,1-.73,1.62-1.08l13.2,13.47-10.24,10.24L526.17,89.87l1.07-1.08s.81-4-3-3l-1.08.8Z"/><path class="cls-1" d="M549.88,93.1s3.5,5.66-1.89,10-8.35.27-8.35.27Z"/><path class="cls-3" d="M531.83,85.29a11.89,11.89,0,0,1,4.29,1.59,16.07,16.07,0,0,1,3.29,2.59,15.46,15.46,0,0,1,2.51,3.34,11.85,11.85,0,0,1,1.49,4.33,11.87,11.87,0,0,1-4.3-1.59A15.75,15.75,0,0,1,535.83,93a16.69,16.69,0,0,1-2.51-3.34A11.92,11.92,0,0,1,531.83,85.29Z"/><path class="cls-4" d="M544.67,98.31h0a4.58,4.58,0,0,1,2.07,4.74l-.19,1s6.7-2.75,3.47-11.1Z"/><path class="cls-5" d="M550.42,53.35,544,60.09l-6.73-2.42-1.89-5.93,6.6-6.87c-15.09-2.16-13.47,14-13.47,14L505,82.05c-5.77-.47-9.24,1.45-11.31,4a11.81,11.81,0,0,0,2.62,17.3l.36.23a8.36,8.36,0,0,0,3.93,1.19c15.62.83,12.62-13.64,12.62-13.64L537,67.37C554.19,68.44,550.42,53.35,550.42,53.35ZM505.55,98.76h-5.93l-3.77-5.12,3.23-5.39h6.47l3,5.39Z"/><path class="cls-6" d="M510,85.83a32.66,32.66,0,0,1,4.2-7.53,53.69,53.69,0,0,1,11.71-11.73,33,33,0,0,1,7.53-4.19,32.63,32.63,0,0,1-4.19,7.53,51.87,51.87,0,0,1-5.41,6.31,52.86,52.86,0,0,1-6.32,5.41A33.56,33.56,0,0,1,510,85.83Z"/></g><g id="Logo_Branca-2" data-name="Logo Branca"><path class="cls-7" d="M248.5,136.5c-1.38-9.69-8.61-20.61-22-23-7.15-1.28-20-1-26,13v-13h-9v86l11-1v-33s18,24,40,0C247.47,160.08,250.5,150.5,248.5,136.5Zm-28.5,31c-9.66,0-17.5-10.3-17.5-23s7.84-23,17.5-23,17.5,10.3,17.5,23S229.66,167.5,220,167.5Z"/><path class="cls-7" d="M367,90c-21,0-38,19.48-38,43.5S346,177,367,177s38-19.48,38-43.5S388,90,367,90Zm-.75,77.5c-14.5,0-26.25-15.67-26.25-35s11.75-35,26.25-35,26.25,15.67,26.25,35S380.75,167.5,366.25,167.5Z"/><path class="cls-7" d="M461.25,95.24,459,102s-30.68-11.73-30.59,10a11.1,11.1,0,0,0,5.64,8.93A232.11,232.11,0,0,1,457,134s18.5,12.62,3.06,32.45A24.55,24.55,0,0,1,447.6,175a40.25,40.25,0,0,1-33.1-4.49l3-9s33.5,15.5,37-9c0,0,1.45-7.27-10.43-13.7a10.23,10.23,0,0,0-1.17-.53,87.11,87.11,0,0,1-19.83-10.75,14.84,14.84,0,0,1-4.69-5.7c-2.57-5.5-4.28-18.09,5.73-26.14.58-.47,1.15-1,1.7-1.46,12.31-11.34,28.49-4.79,34-2.33C461.05,92.46,463,93,461.25,95.24Z"/><path class="cls-7" d="M320,137c-1.38-9.69-8.61-20.61-22-23-7.15-1.28-20-1-26,13V114h-9v86l11-1V166s18,24,40,0C319,160.58,322,151,320,137Zm-28.5,31c-9.66,0-17.5-10.3-17.5-23s7.84-23,17.5-23S309,132.3,309,145,301.16,168,291.5,168Z"/><path class="cls-7" d="M152.5,90.5h-14l-28,85h11l10-27h30l8,26h11Zm-20,48,13-36,13,36Z"/></g></svg>