<svg xmlns="http://www.w3.org/2000/svg" viewBox="0 0 642.42 262.91"><defs><style>.cls-1{fill:#f2b90c;}</style></defs><title>AppOS</title><g id="Logo_Escura" data-name="Logo Escura"><path d="M137,111.61l11-3v17h16v8H149l-1,35s-1,14,16,8l-.5,9.5s-21,5-25-9l-1-43h-9v-8h9Z"/><path d="M220.5,186.11s-2-7-2-41c-6-37-43-15-43-15l3,7s10.43-6.26,19.24-4.46a12.46,12.46,0,0,1,9.47,9.64l.63,2.85a2.13,2.13,0,0,1-2.27,2.59c-6.19-.56-20.81-.65-30.07,9.38A16,16,0,0,0,171,170.76c1.31,9.22,9.43,15.9,18.73,16.09,6.67.13,14.6-1.47,18.75-8.74v8Zm-35-10c-15-21,22-21,22-21C209.5,183.11,191.5,179.11,185.5,176.11Z"/><path d="M238,111.61l11-3v17h16v8H250l-1,35s-1,14,16,8l-.5,9.5s-21,5-25-9l-1-43h-9v-8h9Z"/><path d="M275.5,126.11h11l1,41s3,11,15,11,13-13,13-13v-39h13v60h-10l-1-10s-9,12-20,11-16-7-16-7-6-6-6-32Z"/><path d="M120.25,106.85,118,113.61s-30.68-11.73-30.59,10a11.07,11.07,0,0,0,5.64,8.92,233.29,233.29,0,0,1,23,13.11s18.5,12.61,3.06,32.45a24.61,24.61,0,0,1-12.46,8.54,40.29,40.29,0,0,1-33.1-4.49l3-9s33.5,15.5,37-9c0,0,1.45-7.27-10.43-13.7a10.23,10.23,0,0,0-1.17-.53,87.11,87.11,0,0,1-19.83-10.75,15,15,0,0,1-4.69-5.7c-2.57-5.5-4.28-18.1,5.73-26.14.58-.47,1.15-1,1.7-1.46,12.31-11.34,28.49-4.79,34-2.34C120.05,104.07,122,104.61,120.25,106.85Z"/><path d="M523.25,104.85,521,111.61s-30.68-11.73-30.59,10a11.07,11.07,0,0,0,5.64,8.92A233.29,233.29,0,0,1,519,143.61s18.5,12.61,3.06,32.45a24.61,24.61,0,0,1-12.46,8.54,40.29,40.29,0,0,1-33.1-4.49l3-9s33.5,15.5,37-9c0,0,1.45-7.27-10.43-13.7a10.23,10.23,0,0,0-1.17-.53,87.11,87.11,0,0,1-19.83-10.75,15,15,0,0,1-4.69-5.7c-2.57-5.5-4.28-18.1,5.73-26.14.58-.47,1.15-1,1.7-1.46,12.31-11.34,28.49-4.79,34-2.34C523.05,102.07,525,102.61,523.25,104.85Z"/><path d="M375.3,127.82l-1.65,4.71s-22.51-8.18-22.45,6.95a7.7,7.7,0,0,0,4.14,6.22,174.66,174.66,0,0,1,16.84,9.14s13.57,8.8,2.24,22.62a18,18,0,0,1-9.14,6A30.89,30.89,0,0,1,341,180.29l2.2-6.28s24.58,10.81,27.14-6.27c0,0,1.07-5.07-7.65-9.55a6.55,6.55,0,0,0-.86-.37,65.17,65.17,0,0,1-14.55-7.5,10.48,10.48,0,0,1-3.43-4c-1.89-3.83-3.15-12.62,4.2-18.23.43-.32.84-.66,1.25-1,9-7.91,20.9-3.34,24.91-1.63C375.15,125.88,376.58,126.25,375.3,127.82Z"/><path d="M429,97.61c-21,0-38,19.47-38,43.5s17,43.5,38,43.5,38-19.48,38-43.5S450,97.61,429,97.61Zm-.75,77.5c-14.5,0-26.25-15.67-26.25-35s11.75-35,26.25-35,26.25,15.67,26.25,35S442.75,175.11,428.25,175.11Z"/></g><g id="Logo2"><path class="cls-1" d="M551.79,93.42a25.31,25.31,0,0,1,33.82-26.37,26.46,26.46,0,0,1,13.47,11l-3.46,2a22.86,22.86,0,0,0-26.46-11.16A24.33,24.33,0,0,0,556.34,78,25.27,25.27,0,0,0,551.79,93.42Z"/><path class="cls-1" d="M597.62,77,599,73.72s3.14-2.34,3,1.47l-2.07,7.15a3.64,3.64,0,0,1-2.18,1.3c-1,0-7.65-2.91-7.65-2.91s-1.52-3,.92-3.57l3.2,1.21S596.92,79.09,597.62,77Z"/><path class="cls-1" d="M601.41,91.52a25.5,25.5,0,0,1-34.83,25.57,26.94,26.94,0,0,1-13.39-11.53l4.4-2.36a22.51,22.51,0,0,0,25.57,12,24.13,24.13,0,0,0,13.09-8.51A25.25,25.25,0,0,0,601.41,91.52Z"/><path class="cls-1" d="M555.06,106.35l-1.52,3.28s-3.22,2.23-2.91-1.57l2.31-7.07a3.61,3.61,0,0,1,2.23-1.24c1,0,7.53,3.17,7.53,3.17s1.43,3.07-1,3.54l-3.16-1.32S555.83,104.33,555.06,106.35Z"/></g></svg>