<svg xmlns="http://www.w3.org/2000/svg" viewBox="0 0 318.24 264.92"><defs><style>.cls-1{fill:#b3b3b3;}.cls-2{fill:#f2b90c;}.cls-3{fill:#8c783a;}.cls-4{fill:#707070;opacity:0.28;}.cls-5{fill:#403f3e;}.cls-6{fill:#262626;}</style></defs><title>AppOS</title><g id="icone1"><polygon class="cls-1" points="62 34.42 77 18.42 103 34.42 108 48.42 167.5 107.92 150.5 122.92 92 64.42 78 60.42 62 34.42"/><path class="cls-2" d="M169.5,164.92l39-39,11,12s-3.5,1.46-4,5c-.79,5.63,3,13,10,11,1.64-.59,3.76-2.68,6-4l49,50-38,38-50-50,4-4s3-15-11-11l-4,3Z"/><path class="cls-1" d="M280.5,199.92s13,21-7,37-31,1-31,1Z"/><path class="cls-3" d="M213.5,170.92a124.1,124.1,0,0,1,12.15,9.63c3.85,3.41,7.55,6.95,11.14,10.62s7,7.45,10.37,11.37a124.55,124.55,0,0,1,9.34,12.38,123.05,123.05,0,0,1-12.16-9.63q-5.76-5.11-11.13-10.63t-10.36-11.37A124.13,124.13,0,0,1,213.5,170.92Z"/><path class="cls-4" d="M261.17,219.25h0a17,17,0,0,1,7.68,17.57l-.72,3.81S293,230.42,281,199.42Z"/><path class="cls-5" d="M282.5,52.42l-24,25-25-9-7-22L251,20.92c-56-8-50,52-50,52l-87,86c-21.44-1.77-34.29,5.35-42,14.65-16.44,19.84-11.79,50,9.74,64.18.43.29.87.57,1.32.85a31,31,0,0,0,14.58,4.45c58,3.07,46.85-50.63,46.85-50.63l88-88C296.5,108.42,282.5,52.42,282.5,52.42ZM116,220.92H94l-14-19,12-20h24l11,20Z"/><path class="cls-6" d="M132.5,172.92c6.37-8.13,13.17-15.84,20.09-23.42s14-14.95,21.29-22.2,14.64-14.36,22.2-21.3,15.29-13.72,23.42-20.08c-6.37,8.13-13.16,15.84-20.08,23.41s-14,15-21.3,22.21-14.65,14.35-22.21,21.29S140.63,166.54,132.5,172.92Z"/></g></svg>