<svg xmlns="http://www.w3.org/2000/svg" viewBox="0 0 318 261.42"><defs><style>.cls-1{fill:#f2b90c;}</style></defs><title>AppOS</title><g id="icone2"><path class="cls-1" d="M66.76,139l-.24-4.32c-.06-1.44-.23-2.88-.18-4.32l0-4.33.23-4.34a109.85,109.85,0,0,1,2.64-17.16A106.81,106.81,0,0,1,82.8,72.46a107.92,107.92,0,0,1,23.46-26,103.63,103.63,0,0,1,48.26-21.26,96.73,96.73,0,0,1,17.83-1.29c1.49,0,3,0,4.48.1l4.47.37,2.24.19,2.22.33,4.45.67a108.16,108.16,0,0,1,17.36,4.8c2.86,1,5.59,2.25,8.35,3.47l1,.45,1,.53,2,1,2,1c.67.35,1.34.7,2,1.11,2.58,1.58,5.21,3.08,7.64,4.88,1.22.88,2.51,1.7,3.69,2.64l3.54,2.84c1.21.92,2.31,2,3.43,3s2.27,2,3.34,3.09c2.08,2.2,4.3,4.29,6.21,6.66,1,1.16,2,2.3,2.94,3.48l2.73,3.65c.45.62.92,1.22,1.36,1.84l1.25,1.91,2.49,3.83-10.37,6-2.08-3.51-1-1.76c-.37-.57-.77-1.12-1.15-1.69l-2.3-3.37c-.81-1.1-1.67-2.15-2.5-3.23-1.61-2.21-3.53-4.16-5.31-6.23-.92-1-1.93-1.94-2.89-2.91s-1.91-2-3-2.82l-3.09-2.71c-1-.9-2.16-1.68-3.23-2.53-2.13-1.74-4.46-3.19-6.73-4.73-.57-.4-1.16-.74-1.76-1.08l-1.78-1-1.78-1-.89-.52-.93-.45c-2.46-1.21-4.9-2.51-7.47-3.49a98.87,98.87,0,0,0-15.73-5.09l-4.07-.8-2-.4-2.06-.26-4.13-.52c-1.37-.15-2.76-.18-4.15-.27a88.4,88.4,0,0,0-16.66.48A97.6,97.6,0,0,0,109,50a102.59,102.59,0,0,0-38.3,54.89,108.26,108.26,0,0,0-3.34,16.85L66.92,126l-.2,4.31c-.11,1.44,0,2.88,0,4.32Z"/><path class="cls-1" d="M258.48,70.47l5.9-13.91s13.14-9.79,12.4,6.15l-8.69,29.9A15.11,15.11,0,0,1,259,98.08c-4.09.08-32-12.18-32-12.18S220.63,73.27,230.84,71L244.24,76S255.56,79,258.48,70.47Z"/><path class="cls-1" d="M274.36,131.05l.1,4.32c0,1.45.12,2.89,0,4.33l-.17,4.33-.37,4.32a110.19,110.19,0,0,1-3.21,17.07A106.72,106.72,0,0,1,256.1,197a107.9,107.9,0,0,1-24.32,25.24,103.46,103.46,0,0,1-48.95,19.63,96,96,0,0,1-17.86.69c-1.49-.08-3-.1-4.48-.25L156,241.8l-2.23-.27-2.21-.41-4.42-.82A107,107,0,0,1,130,234.92c-2.83-1-5.51-2.43-8.23-3.74l-1-.49-1-.56-2-1.11-2-1.12a21.08,21.08,0,0,1-1.93-1.17c-2.52-1.66-5.1-3.25-7.47-5.13-1.2-.93-2.45-1.79-3.6-2.77l-3.45-3c-1.17-1-2.23-2-3.32-3.1s-2.2-2.09-3.24-3.19c-2-2.27-4.15-4.44-6-6.87-.94-1.19-1.9-2.37-2.82-3.58l-2.61-3.74c-.43-.63-.87-1.25-1.29-1.88l-1.19-2-2.36-3.91L87.12,182l2,3.57,1,1.8c.35.58.73,1.15,1.09,1.72l2.18,3.45c.77,1.13,1.6,2.21,2.39,3.32,1.54,2.26,3.39,4.27,5.1,6.4.89,1,1.86,2,2.79,3s1.85,2,2.88,2.93l3,2.8c1,.94,2.1,1.76,3.14,2.64,2.07,1.81,4.35,3.34,6.57,4.95a18.81,18.81,0,0,0,1.71,1.14l1.75,1.09,1.75,1.1.87.55.91.48c2.43,1.29,4.82,2.67,7.36,3.74a99,99,0,0,0,15.54,5.62l4,.93,2,.47,2.05.33,4.11.66c1.37.2,2.76.27,4.14.41a89.15,89.15,0,0,0,16.66.08,97.65,97.65,0,0,0,47.06-16.59A102.5,102.5,0,0,0,269.3,165a108.36,108.36,0,0,0,3.9-16.73l.56-4.27.35-4.3c.16-1.44.11-2.88.16-4.32Z"/><path class="cls-1" d="M80.45,193.09l-6.36,13.7s-13.47,9.35-12.19-6.56l9.69-29.59a15.07,15.07,0,0,1,9.29-5.16c4.1.06,31.55,13.24,31.55,13.24s5.94,12.84-4.34,14.8L94.87,188S83.65,184.64,80.45,193.09Z"/></g></svg>