<?xml version="1.0" encoding="utf-8"?>
<!-- Generator: Adobe Illustrator 22.0.0, SVG Export Plug-In . SVG Version: 6.00 Build 0)  -->
<svg version="1.1" xmlns="http://www.w3.org/2000/svg" xmlns:xlink="http://www.w3.org/1999/xlink" x="0px" y="0px"
	 viewBox="0 0 640 264.1" style="enable-background:new 0 0 640 264.1;" xml:space="preserve">
<style type="text/css">
	.st0{fill:#F98500;stroke:#FFFFFF;stroke-miterlimit:10;}
	.st1{fill:#F2B90C;stroke:#FFFFFF;stroke-miterlimit:10;}
	.st2{fill:#403F3E;stroke:#FFFFFF;stroke-miterlimit:10;}
	.st3{stroke:#FFFFFF;stroke-miterlimit:10;}
	.st4{fill:#FFFFFF;stroke:#000000;stroke-width:4;stroke-miterlimit:10;}
	.st5{fill:#262626;stroke:#FFFFFF;stroke-miterlimit:10;}
	.st6{fill:#B3B3B3;}
	.st7{fill:#F2B90C;}
	.st8{fill:#8C783A;}
	.st9{opacity:0.28;fill:#707070;}
	.st10{fill:#403F3E;}
	.st11{fill:#262626;}
	.st12{font-family:'Junction-Light';}
	.st13{font-size:124.2012px;}
	.st14{fill:#F98500;}
	.st15{fill:#FFFFFF;}
	.st16{fill:#F9F9F9;}
</style>
<g id="Layer_1">
</g>
<g id="icone1">
</g>
<g id="Logo_1">
	<g>
		<polygon class="st6" points="494,57.5 498,53.2 505,57.5 506.4,61.3 522.4,77.3 517.8,81.4 502.1,65.6 498.3,64.5 		"/>
		<path class="st7" d="M523,92.7l10.5-10.5l3,3.2c0,0-0.9,0.4-1.1,1.3c-0.2,1.5,0.8,3.5,2.7,3c0.4-0.2,1-0.7,1.6-1.1l13.2,13.5
			l-10.2,10.2l-13.5-13.5l1.1-1.1c0,0,0.8-4-3-3l-1.1,0.8L523,92.7z"/>
		<path class="st6" d="M552.9,102.1c0,0,3.5,5.7-1.9,10c-5.4,4.3-8.4,0.3-8.4,0.3L552.9,102.1z"/>
		<g>
			<path class="st8" d="M534.8,94.3c1.7,0.3,3.1,0.9,4.3,1.6c1.2,0.7,2.3,1.6,3.3,2.6c1,1,1.8,2.1,2.5,3.3c0.7,1.3,1.3,2.6,1.5,4.3
				c-1.7-0.3-3.1-0.9-4.3-1.6c-1.2-0.7-2.3-1.6-3.3-2.6c-1-1-1.8-2.1-2.5-3.3C535.6,97.4,535.1,96,534.8,94.3z"/>
		</g>
		<path class="st9" d="M547.7,107.3L547.7,107.3c1.6,1,2.4,2.9,2.1,4.7l-0.2,1c0,0,6.7-2.8,3.5-11.1L547.7,107.3z"/>
		<path class="st10" d="M553.4,62.4l-6.5,6.7l-6.7-2.4l-1.9-5.9l6.6-6.9c-15.1-2.2-13.5,14-13.5,14L508,91.1
			c-5.8-0.5-9.2,1.4-11.3,3.9c-4.4,5.3-3.2,13.5,2.6,17.3c0.1,0.1,0.2,0.2,0.4,0.2c1.2,0.7,2.5,1.1,3.9,1.2
			c15.6,0.8,12.6-13.6,12.6-13.6l23.7-23.7C557.2,77.4,553.4,62.4,553.4,62.4z M508.6,107.8h-5.9l-3.8-5.1l3.2-5.4h6.5l3,5.4
			L508.6,107.8z"/>
		<g>
			<path class="st11" d="M513,94.8c1.1-2.8,2.6-5.2,4.2-7.5c1.6-2.3,3.5-4.4,5.4-6.3c2-2,4-3.8,6.3-5.4c2.3-1.6,4.7-3.1,7.5-4.2
				c-1.1,2.8-2.6,5.2-4.2,7.5c-1.6,2.3-3.5,4.4-5.4,6.3c-2,2-4.1,3.8-6.3,5.4C518.2,92.3,515.8,93.8,513,94.8z"/>
		</g>
	</g>
	<text transform="matrix(1 0 0 1 98.1035 201.6582)" class="st12 st13">AppOS</text>
</g>
<g id="icone2">
</g>
<g id="Logo2">
</g>
<g id="Logo_Escura">
</g>
<g id="Logo_Branca">
</g>
<g id="Logo_Escura_2">
</g>
<g id="Logo_Branca_1_">
</g>
</svg>
