<?xml version="1.0" encoding="utf-8"?>
<!-- Generator: Adobe Illustrator 22.0.0, SVG Export Plug-In . SVG Version: 6.00 Build 0)  -->
<svg version="1.1" xmlns="http://www.w3.org/2000/svg" xmlns:xlink="http://www.w3.org/1999/xlink" x="0px" y="0px"
	 viewBox="0 0 642.4 262.9" style="enable-background:new 0 0 642.4 262.9;" xml:space="preserve">
<style type="text/css">
	.st0{fill:#F98500;stroke:#FFFFFF;stroke-miterlimit:10;}
	.st1{fill:#F2B90C;stroke:#FFFFFF;stroke-miterlimit:10;}
	.st2{fill:#403F3E;stroke:#FFFFFF;stroke-miterlimit:10;}
	.st3{stroke:#FFFFFF;stroke-miterlimit:10;}
	.st4{fill:#FFFFFF;stroke:#000000;stroke-width:4;stroke-miterlimit:10;}
	.st5{fill:#262626;stroke:#FFFFFF;stroke-miterlimit:10;}
	.st6{fill:#B3B3B3;}
	.st7{fill:#F2B90C;}
	.st8{fill:#8C783A;}
	.st9{opacity:0.28;fill:#707070;}
	.st10{fill:#403F3E;}
	.st11{fill:#262626;}
	.st12{font-family:'Junction-Light';}
	.st13{font-size:124.2012px;}
	.st14{fill:#F98500;}
	.st15{fill:#FFFFFF;}
	.st16{fill:#F9F9F9;}
</style>
<g id="Layer_1">
</g>
<g id="icone1">
</g>
<g id="Logo_1">
</g>
<g id="icone2">
</g>
<g id="Logo2">
	<text transform="matrix(1 0 0 1 20.1035 201.6582)" class="st12 st13">StatusOS</text>
	<g>
		<g>
			<g>
				<path class="st7" d="M551.8,93.4c-0.6-5.5,0.8-11.2,3.7-16c3-4.8,7.6-8.5,13-10.5c5.4-1.9,11.5-2,17.1,0.1
					c5.5,2,10.3,5.9,13.5,11l-3.5,2c-2.4-4.5-6.3-8.2-11.1-10.2c-4.7-2.1-10.3-2.4-15.3-1c-5.1,1.5-9.7,4.7-12.8,9.1
					C553.2,82.4,551.6,87.9,551.8,93.4z"/>
			</g>
			<path class="st7" d="M597.6,77l1.4-3.3c0,0,3.1-2.3,3,1.5l-2.1,7.1c0,0-0.7,1-2.2,1.3c-1,0-7.6-2.9-7.6-2.9s-1.5-3,0.9-3.6
				l3.2,1.2C594.2,78.4,596.9,79.1,597.6,77z"/>
		</g>
		<g>
			<g>
				<path class="st7" d="M601.4,91.5c0.4,5.5-1.1,11.2-4.2,15.9c-3.1,4.7-7.9,8.4-13.4,10.2c-5.5,1.7-11.7,1.7-17.3-0.6
					c-5.6-2.1-10.3-6.3-13.4-11.5l4.4-2.4c2.2,4.5,5.9,8.3,10.5,10.4c4.6,2.3,10,2.8,15.1,1.6c5.1-1.2,9.8-4.3,13.1-8.5
					C599.5,102.4,601.4,97.1,601.4,91.5z"/>
			</g>
			<path class="st7" d="M555.1,106.4l-1.5,3.3c0,0-3.2,2.2-2.9-1.6l2.3-7.1c0,0,0.8-1,2.2-1.2c1,0,7.5,3.2,7.5,3.2s1.4,3.1-1,3.5
				l-3.2-1.3C558.5,105.1,555.8,104.3,555.1,106.4z"/>
		</g>
	</g>
</g>
<g id="Logo_Escura">
</g>
<g id="Logo_Branca">
</g>
<g id="Logo_Escura_2">
</g>
<g id="Logo_Branca_1_">
</g>
</svg>
